<svg width="24" height="24" viewBox="0 0 24 24" fill="none" xmlns="http://www.w3.org/2000/svg">
<circle cx="12" cy="12" r="12" fill="#00AA12"/>
<path fill-rule="evenodd" clip-rule="evenodd" d="M13.78 4.80119C13.758 4.58156 13.747 4.47175 13.7195 4.3799C13.6128 4.02336 13.3169 3.75559 12.9515 3.68487C12.8574 3.66666 12.747 3.66666 12.5263 3.66666H11.4733C11.2526 3.66666 11.1423 3.66666 11.0482 3.68486C10.6828 3.75555 10.3868 4.02338 10.2801 4.37999C10.2527 4.4718 10.2417 4.58156 10.2197 4.80108V4.80108C10.1783 5.21585 10.1575 5.42323 10.1052 5.55418C9.89674 6.07648 9.2987 6.32419 8.78195 6.1023C8.65239 6.04667 8.49104 5.91466 8.16833 5.65063V5.65063C7.99745 5.51081 7.91201 5.4409 7.82761 5.39539C7.50005 5.21876 7.10149 5.23864 6.79312 5.44699C6.71367 5.50067 6.63563 5.57871 6.47955 5.7348L5.73512 6.47923C5.57894 6.6354 5.50086 6.71349 5.44716 6.79299C5.23888 7.10131 5.219 7.49978 5.39557 7.82729C5.44109 7.91174 5.51103 7.99722 5.6509 8.16817V8.16817C5.91512 8.49111 6.04724 8.65258 6.10288 8.78227C6.32457 9.29889 6.07696 9.89668 5.55489 10.1052C5.42384 10.1576 5.21627 10.1783 4.80113 10.2199V10.2199C4.58142 10.2418 4.47156 10.2528 4.37967 10.2803C4.0232 10.3871 3.75547 10.6829 3.68474 11.0482C3.6665 11.1424 3.6665 11.2528 3.6665 11.4736L3.6665 12.5265C3.6665 12.7472 3.6665 12.8575 3.68472 12.9517C3.75543 13.3171 4.02321 13.613 4.37975 13.7197C4.4716 13.7472 4.58141 13.7581 4.80103 13.7801V13.7801C5.21599 13.8216 5.42347 13.8424 5.55447 13.8947C6.07664 14.1032 6.32431 14.7011 6.10252 15.2178C6.04688 15.3474 5.91484 15.5088 5.65076 15.8316V15.8316C5.51098 16.0024 5.44109 16.0878 5.39559 16.1722C5.21894 16.4998 5.23882 16.8984 5.44718 17.2067C5.50086 17.2862 5.5789 17.3642 5.73498 17.5203L6.47951 18.2648C6.63559 18.4209 6.71364 18.4989 6.79308 18.5526C7.10145 18.761 7.50001 18.7809 7.82758 18.6042C7.91197 18.5587 7.99739 18.4888 8.16823 18.349V18.349C8.49102 18.0849 8.65241 17.9529 8.78205 17.8972C9.29873 17.6755 9.89661 17.9231 10.1051 18.4453C10.1575 18.5763 10.1782 18.7838 10.2197 19.1988V19.1988C10.2417 19.4184 10.2527 19.5282 10.2802 19.6201C10.3869 19.9766 10.6828 20.2444 11.0481 20.3151C11.1423 20.3333 11.2526 20.3333 11.4734 20.3333H12.5262C12.747 20.3333 12.8574 20.3333 12.9516 20.3151C13.3169 20.2444 13.6128 19.9766 13.7195 19.6202C13.747 19.5283 13.758 19.4184 13.78 19.1986V19.1986C13.8215 18.7835 13.8422 18.576 13.8946 18.445C14.1031 17.9228 14.701 17.6751 15.2177 17.8969C15.3473 17.9526 15.5087 18.0846 15.8314 18.3487V18.3487C16.0023 18.4884 16.0877 18.5583 16.1721 18.6038C16.4996 18.7805 16.8982 18.7606 17.2066 18.5522C17.286 18.4986 17.364 18.4205 17.5201 18.2645L18.2648 17.5198C18.4208 17.3638 18.4987 17.2858 18.5524 17.2064C18.7608 16.898 18.7807 16.4994 18.604 16.1717C18.5585 16.0874 18.4887 16.002 18.349 15.8313V15.8313C18.0851 15.5087 17.9531 15.3475 17.8975 15.2179C17.6756 14.7011 17.9233 14.1031 18.4456 13.8946C18.5766 13.8423 18.7839 13.8216 19.1987 13.7801V13.7801C19.4183 13.7581 19.528 13.7472 19.6199 13.7197C19.9765 13.613 20.2443 13.317 20.315 12.9516C20.3332 12.8575 20.3332 12.7472 20.3332 12.5266V11.4735C20.3332 11.2528 20.3332 11.1424 20.315 11.0483C20.2442 10.6829 19.9765 10.387 19.6199 10.2803C19.5281 10.2528 19.4183 10.2418 19.1986 10.2199V10.2199C18.7836 10.1784 18.5762 10.1576 18.4451 10.1053C17.923 9.89677 17.6753 9.29887 17.8971 8.78219C17.9527 8.65256 18.0848 8.49118 18.3489 8.16841V8.16841C18.4886 7.99758 18.5585 7.91217 18.604 7.82778C18.7807 7.5002 18.7608 7.10163 18.5524 6.79326C18.4987 6.71382 18.4207 6.63579 18.2646 6.47971L17.5201 5.73516C17.364 5.57909 17.286 5.50106 17.2065 5.44738C16.8982 5.23901 16.4996 5.21913 16.172 5.39578C16.0876 5.44129 16.0022 5.51117 15.8314 5.65093V5.65093C15.5086 5.915 15.3473 6.04704 15.2176 6.10268C14.701 6.32447 14.103 6.0768 13.8945 5.55462C13.8422 5.42362 13.8215 5.21614 13.78 4.80119V4.80119Z" fill="white"/>
<path d="M15.5715 8.76328L8.71436 15.8163" stroke="#00AA12" stroke-width="2"/>
<mask id="path-4-inside-1_160_734" fill="white">
<ellipse cx="9.78551" cy="10.3061" rx="1.92857" ry="1.98367"/>
</mask>
<path d="M9.71408 10.3061C9.71408 10.3114 9.71358 10.3144 9.71334 10.3157C9.71307 10.317 9.71284 10.3176 9.71281 10.3176C9.7126 10.3181 9.71286 10.3171 9.71522 10.3146C9.71761 10.3122 9.72455 10.3059 9.73833 10.2999C9.75363 10.2933 9.7711 10.2898 9.78551 10.2898V14.2898C12.0079 14.2898 13.7141 12.4528 13.7141 10.3061H9.71408ZM9.78551 10.2898C9.79991 10.2898 9.81738 10.2933 9.83268 10.2999C9.84646 10.3059 9.8534 10.3122 9.85579 10.3146C9.85815 10.3171 9.85841 10.3181 9.8582 10.3176C9.85817 10.3176 9.85794 10.317 9.85767 10.3157C9.85743 10.3144 9.85693 10.3114 9.85693 10.3061H5.85693C5.85693 12.4528 7.56308 14.2898 9.78551 14.2898V10.2898ZM9.85693 10.3061C9.85693 10.3008 9.85743 10.2978 9.85767 10.2966C9.85794 10.2953 9.85817 10.2947 9.8582 10.2946C9.85841 10.2941 9.85815 10.2952 9.85579 10.2976C9.8534 10.3001 9.84646 10.3063 9.83268 10.3123C9.81738 10.319 9.79991 10.3224 9.78551 10.3224V6.32245C7.56308 6.32245 5.85693 8.15948 5.85693 10.3061H9.85693ZM9.78551 10.3224C9.7711 10.3224 9.75363 10.319 9.73833 10.3123C9.72455 10.3063 9.71761 10.3001 9.71522 10.2976C9.71286 10.2952 9.7126 10.2941 9.71281 10.2946C9.71284 10.2947 9.71307 10.2953 9.71334 10.2966C9.71358 10.2978 9.71408 10.3008 9.71408 10.3061H13.7141C13.7141 8.15948 12.0079 6.32245 9.78551 6.32245V10.3224Z" fill="#00AA12" mask="url(#path-4-inside-1_160_734)"/>
<mask id="path-6-inside-2_160_734" fill="white">
<ellipse cx="14.4999" cy="14.2735" rx="1.92857" ry="1.98367"/>
</mask>
<path d="M14.4284 14.2735C14.4284 14.2788 14.4279 14.2818 14.4277 14.283C14.4274 14.2843 14.4272 14.2849 14.4272 14.285C14.427 14.2855 14.4272 14.2844 14.4296 14.282C14.432 14.2795 14.4389 14.2733 14.4527 14.2673C14.468 14.2606 14.4855 14.2571 14.4999 14.2571V18.2571C16.7223 18.2571 18.4284 16.4201 18.4284 14.2735H14.4284ZM14.4999 14.2571C14.5143 14.2571 14.5317 14.2606 14.547 14.2673C14.5608 14.2733 14.5678 14.2795 14.5701 14.282C14.5725 14.2844 14.5728 14.2855 14.5726 14.285C14.5725 14.2849 14.5723 14.2843 14.572 14.283C14.5718 14.2818 14.5713 14.2788 14.5713 14.2735H10.5713C10.5713 16.4201 12.2774 18.2571 14.4999 18.2571V14.2571ZM14.5713 14.2735C14.5713 14.2682 14.5718 14.2651 14.572 14.2639C14.5723 14.2626 14.5725 14.262 14.5726 14.262C14.5728 14.2615 14.5725 14.2625 14.5701 14.265C14.5678 14.2674 14.5608 14.2736 14.547 14.2796C14.5317 14.2863 14.5143 14.2898 14.4999 14.2898V10.2898C12.2774 10.2898 10.5713 12.1268 10.5713 14.2735H14.5713ZM14.4999 14.2898C14.4855 14.2898 14.468 14.2863 14.4527 14.2796C14.4389 14.2736 14.432 14.2674 14.4296 14.265C14.4272 14.2625 14.427 14.2615 14.4272 14.262C14.4272 14.262 14.4274 14.2626 14.4277 14.2639C14.4279 14.2651 14.4284 14.2682 14.4284 14.2735H18.4284C18.4284 12.1268 16.7223 10.2898 14.4999 10.2898V14.2898Z" fill="#00AA12" mask="url(#path-6-inside-2_160_734)"/>
</svg>
