<svg width="23" height="22" viewBox="0 0 23 22" fill="none" xmlns="http://www.w3.org/2000/svg">
<path fill-rule="evenodd" clip-rule="evenodd" d="M0.231238 0.588444C-0.568762 1.78844 0.897905 2.75511 1.73124 3.08844C2.70222 3.65045 2.98377 6.42073 3.45698 11.077L3.5 11.5C3.81273 14.5719 6 15.8333 7 16C7.39937 16.02 7.86283 16.0465 8.37204 16.0756L8.3728 16.0756C12.1138 16.2896 18.323 16.6446 19.7312 15.5885C21.3927 14.3424 22.019 10.6809 22.47 8.04378L22.4701 8.04357C22.562 7.50632 22.6466 7.0116 22.7312 6.58849C23.1312 4.58849 21.8979 4.08849 21.2312 4.08849C16.2312 3.92181 5.9312 3.58844 4.7312 3.58844C4.7312 0.588444 1.23124 -0.911556 0.231238 0.588444ZM10.2312 6C10.7835 6 11.2312 6.44772 11.2312 7V12C11.2312 12.5523 10.7835 13 10.2312 13C9.67892 13 9.2312 12.5523 9.2312 12V7C9.2312 6.44772 9.67892 6 10.2312 6ZM15.7312 7C15.7312 6.44772 15.2835 6 14.7312 6C14.1789 6 13.7312 6.44772 13.7312 7V12C13.7312 12.5523 14.1789 13 14.7312 13C15.2835 13 15.7312 12.5523 15.7312 12V7Z" fill="white"/>
<circle cx="16.7314" cy="20" r="2" fill="white"/>
<circle cx="8.73145" cy="20" r="2" fill="white"/>
</svg>
