<svg width="28" height="25" viewBox="0 0 28 25" fill="none" xmlns="http://www.w3.org/2000/svg">
<path d="M14.3393 3.06414C14.3393 4.26414 16.3393 4.2308 17.3393 4.06414C17.4018 4.23083 17.6894 5.26421 18.3394 8.06421C19.8394 16.5642 16.8393 17.0642 14.8394 17.5642C12.8394 18.0642 11.3394 13.5642 12.8394 13.5642C14.0394 13.5642 15.006 12.5642 15.3394 12.0642C15.8394 9.56421 15.8394 8.06421 8.83936 8.06421C0.839345 8.06421 1.3394 9.56421 0.339396 10.0642C-0.460604 10.4642 0.339362 11.5642 0.839345 12.0642C0.506012 12.7309 -0.660645 14.5642 0.839345 15.0642C3.83935 14.0642 5.83935 14.0642 8.33935 15.5642C10.3393 16.7642 10.506 20.0642 10.3393 21.5642H17.8393C17.6727 20.8975 17.5589 18.5717 19.3394 16.5642C21.8392 13.7455 23.5 14.5642 26 14.5642C26.5 9.06421 21.8393 5.56421 20.3393 4.56421C21.9393 4.56421 21.3393 2.89754 20.8393 2.0642C20.1727 1.23087 18.5393 -0.335796 17.3393 0.0642037C16.1393 0.464204 16.506 1.89749 16.8393 2.56414C16.006 2.2308 14.3393 1.86414 14.3393 3.06414Z" fill="white"/>
<circle cx="23.8394" cy="20.5642" r="4" fill="white"/>
<circle cx="4.83936" cy="20.5642" r="4" fill="white"/>
</svg>
