<svg width="24" height="24" viewBox="0 0 24 24" fill="none" xmlns="http://www.w3.org/2000/svg">
<path d="M0 3.73333V11.2C0 13.3333 1.36747 15.4667 3.64658 17.0667L4.1024 22.4C4.1024 22.9333 4.37589 24 5.46987 24C6.56384 24 6.83733 22.9333 6.83733 22.4C6.98927 21.5111 7.29315 19.2 7.29315 17.0667C10.0281 16 10.4839 13.8667 10.9397 11.2C11.3044 9.06667 10.9397 4.26667 10.4839 2.13333C10.3852 1.67135 9.84577 1.06667 9.11645 1.06667C8.38714 1.06667 8.2048 2.13333 8.2048 2.66667C8.2048 3.2 8.66062 6.4 8.66062 7.46667C8.66062 8.53333 8.66062 9.06667 7.74898 9.06667C6.655 9.06667 6.83734 8 6.83733 7.46667V2.13333C6.83733 1.42222 6.56384 0 5.46987 0C4.37589 0 4.1024 1.42222 4.1024 2.13333V7.46667C4.10241 8 4.28473 9.06667 3.19076 9.06667C2.09678 9.06667 2.27911 8 2.27911 7.46667C2.27911 6.93333 2.73493 4.8 2.73493 3.73333C2.73493 2.66667 2.46144 1.06667 1.36747 1.06667C0.273493 1.06667 0 2.84444 0 3.73333Z" fill="#ED2739"/>
<path d="M18.6887 0C15.7714 0 14.1305 5.68889 13.6746 8.53333C13.2188 11.7333 13.6746 12.8 14.1305 13.8667C14.4951 14.72 16.1057 16.3556 16.8654 17.0667L17.3212 22.4C17.3212 22.9333 17.5947 24 18.6887 24C19.7827 24 20.0562 22.9333 20.0562 22.4L20.512 17.0667L23.2469 13.8667C24.3409 12.5867 24.0066 9.77778 23.7027 8.53333C23.2469 5.68889 21.606 0 18.6887 0Z" fill="#ED2739"/>
</svg>
