<svg width="141" height="59" viewBox="0 0 141 59" fill="none" xmlns="http://www.w3.org/2000/svg">
<rect width="141" height="59" rx="29.5" fill="#0B0A0A"/>
<circle cx="30.5" cy="29.5" r="23.5" fill="#BBF2C8"/>
<path d="M65.0391 38H67.957L71.3672 25.8711H71.4375L74.8477 38H77.7656L82.3008 21.0898H79.1602L76.2188 33.8516H76.1602L72.7734 21.0898H70.0312L66.6445 33.8516H66.5859L63.6445 21.0898H60.5039L65.0391 38ZM85.9308 38.2109C87.5714 38.2109 88.9542 37.3906 89.6691 36.0898H89.7394V38H92.6573V29.457C92.6573 26.9609 90.6534 25.3203 87.548 25.3203C84.3956 25.3203 82.4855 26.9727 82.3097 29.1758L82.298 29.3164H85.005L85.0284 29.2109C85.2159 28.2969 86.0597 27.6523 87.4425 27.6523C88.9191 27.6523 89.7394 28.4141 89.7394 29.668V30.5234L86.4933 30.7227C83.4816 30.9102 81.7706 32.2344 81.7706 34.4375V34.4609C81.7706 36.6758 83.4464 38.2109 85.9308 38.2109ZM84.6769 34.3438V34.332C84.6769 33.3477 85.462 32.7266 86.9034 32.6328L89.7394 32.457V33.3945C89.7394 34.8711 88.4737 35.9844 86.798 35.9844C85.5206 35.9844 84.6769 35.3633 84.6769 34.3438ZM94.8928 38H97.8108V30.793C97.8108 28.9531 98.8069 27.9102 100.459 27.9102C100.951 27.9102 101.397 27.9805 101.643 28.0742V25.4375C101.42 25.3789 101.08 25.3203 100.717 25.3203C99.2873 25.3203 98.2561 26.2227 97.8694 27.7227H97.8108V25.5781H94.8928V38ZM108.156 42.3477C111.753 42.3477 114.015 40.4609 114.015 37.6484V25.5781H111.097V27.6875H111.027C110.324 26.2578 108.964 25.3203 107.206 25.3203C104.066 25.3203 102.038 27.7344 102.038 31.6602V31.6719C102.038 35.5391 104.042 37.9297 107.16 37.9297C108.941 37.9297 110.347 37.0859 111.038 35.7617H111.097V37.5547C111.097 39.1367 110.054 40.1445 108.156 40.1445C106.632 40.1445 105.636 39.6055 105.32 38.8906L105.285 38.7969H102.413L102.437 38.9023C102.788 40.8477 104.863 42.3477 108.156 42.3477ZM108.074 35.6797C106.199 35.6797 105.015 34.168 105.015 31.7188V31.707C105.015 29.293 106.199 27.7812 108.074 27.7812C109.878 27.7812 111.109 29.3164 111.109 31.7188V31.7305C111.109 34.1445 109.89 35.6797 108.074 35.6797ZM119.954 38.2109C121.594 38.2109 122.977 37.3906 123.692 36.0898H123.762V38H126.68V29.457C126.68 26.9609 124.676 25.3203 121.571 25.3203C118.418 25.3203 116.508 26.9727 116.333 29.1758L116.321 29.3164H119.028L119.051 29.2109C119.239 28.2969 120.083 27.6523 121.465 27.6523C122.942 27.6523 123.762 28.4141 123.762 29.668V30.5234L120.516 30.7227C117.504 30.9102 115.793 32.2344 115.793 34.4375V34.4609C115.793 36.6758 117.469 38.2109 119.954 38.2109ZM118.7 34.3438V34.332C118.7 33.3477 119.485 32.7266 120.926 32.6328L123.762 32.457V33.3945C123.762 34.8711 122.497 35.9844 120.821 35.9844C119.543 35.9844 118.7 35.3633 118.7 34.3438Z" fill="#FFFDFD"/>
<path fill-rule="evenodd" clip-rule="evenodd" d="M30.0265 13C28.0265 13 26.8598 14.3333 26.5265 15C23.8598 21.3333 18.4265 35.2 18.0265 40C17.6265 44.8 21.8598 45 24.0265 44.5L30.0265 41.5L36.0265 44.5C38.1931 45 42.4265 44.8 42.0265 40C41.6265 35.2 36.1931 21.3333 33.5265 15C33.1931 14.3333 32.0265 13 30.0265 13Z" fill="#00AA12"/>
<path d="M41.1368 30.4708L38.8906 24.1067C38.6857 23.5262 39.0501 22.9011 39.6649 22.8698C41.6681 22.7677 44.5154 23.2025 45.5 25.5C46.5095 27.8554 44.2873 29.9042 42.4648 30.9915C41.961 31.2921 41.332 31.024 41.1368 30.4708Z" fill="#00AA12"/>
<path d="M18.6157 30.4708L20.8618 24.1067C21.0667 23.5262 20.7023 22.9011 20.0875 22.8698C18.0844 22.7677 15.2371 23.2025 14.2524 25.5C13.243 27.8554 15.4651 29.9042 17.2876 30.9915C17.7915 31.2921 18.4204 31.024 18.6157 30.4708Z" fill="#00AA12"/>
</svg>
